# xmcd
#
# Track frame offsets: 
#        150
#        41510
#        67600
#        91108
#        117498
#        125138
#        139518
#        165035
#        192508
#        204053
#
# Disc length: 3145 seconds
#
# Revision: 13
# Processed by: cddbd v1.5.2PL0 Copyright (c) Steve Scherf et al.
# Submitted via: ExactAudioCopy v0.95b4
#
DISCID=790c470a
DTITLE=Emil Gilels - Piano Sonata Nr. 8, 13 and 14
DYEAR=1981
DGENRE=Classical
TTITLE0=Piano Sonata No.8 in C minor Op.13 'Pathetique' -I- Grave - A
TTITLE0=llegro di molto e con brio
TTITLE1=Piano Sonata No.8 in C minor Op.13 'Pathetique' -II- Adagio ca
TTITLE1=ntabile
TTITLE2=Piano Sonata No.8 in C minor Op.13 'Pathetique' -III- Rondo- A
TTITLE2=llegro
TTITLE3=Piano Sonata No.13 in Eb Op.27 No.1 -I- Andante - Allegro - Te
TTITLE3=mpo I
TTITLE4=Piano Sonata No.13 in Eb Op.27 No.1 -II- Allegro molto e vivac
TTITLE4=e
TTITLE5=Piano Sonata No.13 in Eb Op.27 No.1 -III- Adagio con espressio
TTITLE5=ne
TTITLE6=Piano Sonata No.13 in Eb Op.27 No.1 -IV- Allegro vivace - Pres
TTITLE6=to
TTITLE7=Piano Sonata No.14 in C# minor Op.27 No.2 'Moonlight' -I- Adag
TTITLE7=io sostenuto
TTITLE8=Piano Sonata No.14 in C# minor Op.27 No.2 'Moonlight' -II- All
TTITLE8=egretto
TTITLE9=Piano Sonata No.14 in C# minor Op.27 No.2 'Moonlight' -III- Pr
TTITLE9=esto agitato
EXTD=Played by Emil Gilels
EXTT0=
EXTT1=
EXTT2=
EXTT3=
EXTT4=
EXTT5=
EXTT6=
EXTT7=
EXTT8=
EXTT9=
PLAYORDER=
